<?xml version="1.0" encoding="utf-8"?>
<!-- Generator: Adobe Illustrator 16.0.0, SVG Export Plug-In . SVG Version: 6.00 Build 0)  -->
<!DOCTYPE svg PUBLIC "-//W3C//DTD SVG 1.1//EN" "http://www.w3.org/Graphics/SVG/1.1/DTD/svg11.dtd">
<svg version="1.1" xmlns="http://www.w3.org/2000/svg" xmlns:xlink="http://www.w3.org/1999/xlink" x="0px" y="0px"
	 width="756.587px" height="136.781px" viewBox="0 0 756.587 136.781" enable-background="new 0 0 756.587 136.781"
	 xml:space="preserve">
<g id="Ebene_1">
</g>
<g id="Ebene_3">
	<g>
		<path fill="#0062CC" d="M15.979,101.846C9.18,99.864,3.852,97.341,0,94.281L6.8,81.36c3.966,2.835,8.781,5.101,14.45,6.801
			c5.666,1.699,11.39,2.55,17.17,2.55c14.28,0,21.42-4.08,21.42-12.24c0-2.719-0.964-4.871-2.89-6.46
			c-1.929-1.586-4.335-2.746-7.226-3.485c-2.89-0.735-6.999-1.557-12.324-2.465c-7.255-1.131-13.176-2.436-17.766-3.91
			c-4.59-1.471-8.529-3.966-11.814-7.479c-3.289-3.512-4.931-8.441-4.931-14.79c0-8.16,3.4-14.705,10.2-19.635
			c6.8-4.931,15.922-7.396,27.37-7.396c6.006,0,12.012,0.738,18.02,2.21c6.006,1.475,10.937,3.459,14.79,5.95l-6.97,12.92
			c-7.368-4.76-16.038-7.14-26.01-7.14c-6.914,0-12.185,1.134-15.811,3.399c-3.628,2.269-5.439,5.271-5.439,9.011
			c0,2.948,1.02,5.27,3.06,6.97s4.562,2.948,7.565,3.74c3.001,0.794,7.225,1.699,12.665,2.72c7.251,1.248,13.116,2.579,17.595,3.996
			c4.476,1.417,8.301,3.824,11.476,7.224c3.171,3.401,4.76,8.16,4.76,14.28c0,8.16-3.485,14.649-10.455,19.465
			c-6.97,4.818-16.464,7.225-28.476,7.225C29.861,104.82,22.78,103.827,15.979,101.846z"/>
		<path fill="#0062CC" d="M167.789,18.631c6.911,3.854,12.325,9.238,16.234,16.15c3.91,6.914,5.865,14.903,5.865,23.971
			s-1.955,17.084-5.865,24.054c-3.909,6.97-9.323,12.384-16.234,16.235c-6.914,3.854-14.734,5.779-23.46,5.779
			c-6.46,0-12.384-1.245-17.766-3.739c-5.384-2.492-9.944-6.12-13.685-10.88v46.58h-16.32V13.701h15.641V27.98
			c3.625-4.985,8.216-8.755,13.77-11.305c5.552-2.549,11.672-3.825,18.36-3.825C153.055,12.851,160.875,14.779,167.789,18.631z
			 M158.523,86.546c4.591-2.662,8.216-6.401,10.881-11.22c2.661-4.816,3.994-10.341,3.994-16.574c0-6.232-1.333-11.758-3.994-16.576
			c-2.665-4.815-6.29-8.526-10.881-11.135c-4.59-2.606-9.774-3.91-15.555-3.91c-5.668,0-10.795,1.333-15.385,3.996
			s-8.219,6.375-10.88,11.134c-2.664,4.76-3.995,10.259-3.995,16.491c0,6.233,1.302,11.758,3.91,16.574
			c2.605,4.818,6.231,8.558,10.88,11.22c4.646,2.664,9.802,3.995,15.47,3.995C148.749,90.541,153.934,89.21,158.523,86.546z"/>
		<path fill="#0062CC" d="M332.346,43.496v32.425c0,4.874,1.217,8.614,3.655,11.22c2.436,2.609,5.921,3.91,10.455,3.91
			c4.985,0,9.235-1.416,12.75-4.25l5.1,11.73c-2.38,2.039-5.328,3.599-8.84,4.675c-3.515,1.075-7.14,1.614-10.88,1.614
			c-9.068,0-16.095-2.436-21.08-7.31c-4.988-4.871-7.48-11.842-7.48-20.91V44L332.346,43.496z"/>
		<path fill="#0062CC" d="M462.055,64.19h-73.1c1.021,7.935,4.505,14.31,10.455,19.125c5.95,4.818,13.345,7.226,22.185,7.226
			c10.767,0,19.437-3.625,26.011-10.88l9.01,10.54c-4.08,4.76-9.153,8.388-15.215,10.88c-6.064,2.494-12.835,3.739-20.315,3.739
			c-9.52,0-17.964-1.954-25.33-5.864c-7.368-3.91-13.063-9.377-17.085-16.405c-4.024-7.025-6.035-14.96-6.035-23.799
			c0-8.727,1.955-16.603,5.865-23.631c3.91-7.026,9.292-12.494,16.15-16.405c6.855-3.91,14.591-5.865,23.205-5.865
			c8.611,0,16.29,1.955,23.034,5.865c6.742,3.911,12.012,9.379,15.811,16.405c3.796,7.028,5.695,15.074,5.695,24.14
			C462.396,60.509,462.281,62.15,462.055,64.19z M398.22,33.761c-5.27,4.76-8.358,10.994-9.265,18.7h57.8
			c-0.908-7.592-3.995-13.797-9.265-18.615c-5.271-4.815-11.815-7.225-19.635-7.225C410.035,26.621,403.49,29.002,398.22,33.761z"/>
		<path fill="#0062CC" d="M503.025,16.931c5.551-2.72,12.295-4.08,20.229-4.08v15.811c-0.908-0.112-2.154-0.17-3.74-0.17
			c-8.84,0-15.783,2.636-20.824,7.904c-5.045,5.271-7.565,12.779-7.565,22.525v44.88h-16.32v-90.1h15.641v15.13
			C493.276,23.619,497.471,19.65,503.025,16.931z"/>
	</g>
	<g>
		<path fill="#0062CC" stroke="#0062CC" stroke-width="5" stroke-miterlimit="10" d="M533.77,83.096c2.219,0,4.087,1.01,5.601,3.027
			c1.008,1.313,1.514,2.978,1.514,4.995c0,4.745-1.313,9.739-3.936,14.985c-2.725,5.549-6.308,8.325-10.747,8.325
			c-4.641,0-6.963-2.626-6.963-7.871s1.615-10.596,4.844-16.045C527.01,85.57,530.236,83.096,533.77,83.096z"/>
		<path fill="#0062CC" stroke="#0062CC" stroke-width="5" stroke-miterlimit="10" d="M615.91,77.388
			c1.563-2.294,5.175-7.812,10.84-16.552c4.834-7.472,12.549-18.238,23.145-32.301c6.152-8.154,11.719-14.989,16.699-20.508
			c2.978-3.32,5.614-4.98,7.91-4.98c1.318,0,2.417,0.465,3.296,1.392c0.78,0.732,1.172,1.661,1.172,2.783
			c0,1.661-1.001,4.273-3.003,7.837c-0.392,0.732-2.393,4.273-6.006,10.62c-6.445,11.426-10.815,19.581-13.11,24.463
			c-6.299,13.38-10.913,24.781-13.843,34.204c-1.71,5.615-2.563,9.741-2.563,12.378c0,0.586,0.048,1.197,0.146,1.831
			c0.244,1.904,0.366,3.029,0.366,3.369c0,1.417-0.538,2.735-1.611,3.955c-0.928,1.123-1.978,1.685-3.149,1.685
			c-1.367,0-2.49-0.806-3.369-2.417c-0.732-1.22-1.099-2.93-1.099-5.127c0-13.817,11.523-40.967,34.57-81.445
			c-12.061,12.891-25.415,31.348-40.063,55.371c-3.223,5.226-5.885,8.766-7.983,10.62c-2.051,1.808-4.004,2.71-5.859,2.71
			c-1.856,0-3.223-0.806-4.102-2.417c-0.586-1.073-0.879-2.318-0.879-3.735c0-12.205,7.251-31.421,21.753-57.642
			c-4.933,5.03-9.668,10.865-14.209,17.505c-8.252,12.257-15.626,24.829-22.119,37.72c-3.076,6.202-6.812,14.478-11.206,24.829
			c-2.197,5.273-4.735,7.91-7.617,7.91c-0.732,0-1.343-0.318-1.831-0.952c-0.391-0.439-0.586-0.978-0.586-1.611
			c0-0.929,0.904-3.466,2.71-7.617c3.857-9.13,6.812-15.698,8.862-19.702c10.498-20.459,22.925-39.697,37.28-57.715
			c6.006-7.519,10.155-12.402,12.451-14.648c2.392-2.295,4.369-3.442,5.933-3.442c0.977,0,1.929,0.439,2.856,1.318
			c1.123,1.025,1.685,2.197,1.685,3.516c0,1.465-1.025,3.882-3.076,7.251c-5.859,9.57-11.255,20.313-16.187,32.227
			C619.865,60.811,617.13,69.918,615.91,77.388z"/>
		<path fill="#0062CC" stroke="#0062CC" stroke-width="5" stroke-miterlimit="10" d="M696.403,46.04l2.93-0.513
			c10.791-2.051,18.311-3.076,22.559-3.076c3.076,0,4.614,1.245,4.614,3.735c0,1.563-0.611,2.612-1.831,3.149
			c-0.831,0.392-2.246,0.635-4.248,0.732c-12.646,0.781-22.266,2.271-28.857,4.468c-2.589,3.858-6.372,11.06-11.353,21.606
			c-2.882,6.152-5.127,11.842-6.738,17.066c1.123-0.391,2.222-0.781,3.296-1.173c7.226-2.44,12.549-4.028,15.967-4.761
			c4.541-0.879,8.813-1.318,12.817-1.318c2.637,0,4.589,0.318,5.859,0.952c1.123,0.538,1.685,1.563,1.685,3.076
			c0,1.515-0.685,2.517-2.051,3.003c-0.635,0.195-2.149,0.318-4.541,0.366c-12.939,0.685-24.463,3.858-34.57,9.522
			c-1.318,0.731-2.442,1.098-3.369,1.098c-1.367,0-2.589-0.707-3.662-2.124c-0.927-1.172-1.392-2.368-1.392-3.589
			c0-1.219,1.538-5.713,4.614-13.477c4.639-11.767,10.961-24.657,18.97-38.672c2.392-4.248,6.933-11.4,13.623-21.46
			c1.513-2.344,2.978-4.638,4.395-6.885c-1.953-0.487-2.93-1.782-2.93-3.882c0-1.563,0.78-2.71,2.344-3.442
			c2.538-1.172,7.422-2.317,14.648-3.442c10.791-1.659,19.946-2.49,27.466-2.49c4.248,0,6.372,1.124,6.372,3.369
			c0,1.563-0.732,2.882-2.197,3.955c-0.732,0.539-1.904,0.806-3.516,0.806c-0.099,0-0.659-0.024-1.685-0.073
			c-0.732,0-1.538,0-2.417,0c-3.516,0-8.595,0.366-15.234,1.1c-5.762,0.635-10.719,1.563-14.868,2.782
			c0.487,0.732,0.732,1.318,0.732,1.759c0,0.83-1.147,2.734-3.442,5.712l-3.516,5.42C701.848,36.764,698.355,42.33,696.403,46.04z"
			/>
	</g>
	<g>
		<polygon fill="none" points="230.113,58.996 230.878,50 230.233,57.422 230.1,59 		"/>
		<polygon fill="none" points="243.518,55.57 243.514,55.53 241.186,56.167 		"/>
		<polygon fill="none" points="230.233,57.422 230.097,59 230.1,59 		"/>
		<rect x="234.92" y="39" fill="#0062CC" width="5" height="7"/>
		<path fill="#0062CC" d="M247.494,39.168l42.953-8.336c-1.232-1.722-2.574-3.34-4.023-4.856c-3.228-3.374-6.991-6.241-11.294-8.596
			c-7.489-4.098-15.859-6.146-25.11-6.146c-9.34,0-17.755,2.048-25.242,6.146c-4.296,2.349-8.059,5.216-11.297,8.596
			c-2.407,2.512-4.524,5.306-6.346,8.386c-4.274,7.227-6.41,15.287-6.41,24.186c0,8.899,2.136,16.961,6.41,24.185
			c0.727,1.229,1.502,2.407,2.321,3.544c4.84,0.651,10.799,1.106,18.005,1.103l0.449-5.256l17.695-4.764l0.37,4.334
			c15.776-10.375,26.115-17.12,36.731-15.271c6.968,1.214,9.618,6.173,12.681,11.039c2.136-5.063,3.339-10.525,3.605-16.387
			c0.038-0.835,0.058-1.677,0.058-2.526c0-0.84-0.021-1.67-0.058-2.494c-0.236-5.27-1.227-10.217-2.974-14.843l-51.361,4.474
			L247.494,39.168z M230.92,37.731v-0.894l5.956-5.011l6.044,5.011v0.894l-2,0.627v8.052l1.867,1.25l0.258,1.34h-12.167l0.216-1.34
			l1.826-1.25v-8.052L230.92,37.731z M230.878,49.838l-0.645,7.584L230.878,50h12.167l0.469,5.53l0.004,0.04l-6.874,1.84
			l-6.544,1.751l0.014-0.165L230.1,59h-0.003L230.878,49.838z M245.018,71.908l-16.492,4.438l0.955-11.176l14.625-3.935
			L245.018,71.908z"/>
		<polygon fill="#0062CC" points="236.644,57.41 243.518,55.57 241.186,56.167 		"/>
		<polygon fill="#0062CC" points="230.878,49.838 230.097,59 230.233,57.422 		"/>
		<polygon fill="#0062CC" points="236.644,57.33 230.113,58.996 230.1,59.161 236.644,57.41 241.186,56.167 		"/>
		<path fill="#0062CC" d="M315.472,25.976l-16.479,3.198l-8.546,1.658c0.797,1.113,1.554,2.265,2.26,3.464
			c1.306,2.219,2.41,4.524,3.313,6.914l2.974-0.274l37.161-3.434l24.603-2.272l25.226-22.937L315.472,25.976z"/>
		<path fill="#0062CC" d="M234.32,87.115c-4.227,0.992-13.813,1.566-22.739,1.896c1.843,2.185,3.885,4.175,6.12,5.978
			c2.174,1.755,4.53,3.333,7.076,4.726c7.487,4.098,15.902,6.146,25.242,6.146c9.251,0,17.621-2.048,25.11-6.146
			c2.55-1.395,4.905-2.974,7.078-4.726c3.816-3.079,7.054-6.706,9.704-10.89c-6.035-3.528-11.474-7.015-14.778-7.718
			C258.981,72.52,247.486,84.028,234.32,87.115z"/>
	</g>
	<polygon fill="#0062CC" points="333.92,17 313.92,21 313.92,13 333.92,4 	"/>
</g>
<g id="Ebene_2">
	<g>
	</g>
	<g>
	</g>
	<g>
	</g>
	<g>
	</g>
	<g>
	</g>
	<g>
	</g>
	<g>
	</g>
	<g>
	</g>
	<g>
	</g>
	<g>
	</g>
	<g>
	</g>
	<g>
	</g>
	<g>
	</g>
	<g>
	</g>
	<g>
	</g>
</g>
</svg>
